<svg xmlns="http://www.w3.org/2000/svg" xmlns:xlink="http://www.w3.org/1999/xlink" width="500" zoomAndPan="magnify" viewBox="0 0 375 374.999991" height="500" preserveAspectRatio="xMidYMid meet" version="1.2"><defs><clipPath id="797a8d9a89"><path d="M 122.6875 133.859375 L 235.1875 133.859375 L 235.1875 246.359375 L 122.6875 246.359375 Z M 122.6875 133.859375 "/></clipPath><clipPath id="b90e819de3"><path d="M 178.9375 133.859375 C 147.871094 133.859375 122.6875 159.042969 122.6875 190.109375 C 122.6875 221.175781 147.871094 246.359375 178.9375 246.359375 C 210.003906 246.359375 235.1875 221.175781 235.1875 190.109375 C 235.1875 159.042969 210.003906 133.859375 178.9375 133.859375 Z M 178.9375 133.859375 "/></clipPath><clipPath id="232a1c0f5b"><path d="M 174.570312 216.808594 L 183.304688 216.808594 L 183.304688 224.75 L 174.570312 224.75 Z M 174.570312 216.808594 "/></clipPath><filter x="0%" y="0%" width="100%" filterUnits="objectBoundingBox" id="0b31d6db81" height="100%"><feColorMatrix values="0 0 0 0 1 0 0 0 0 1 0 0 0 0 1 0 0 0 1 0" type="matrix" in="SourceGraphic"/></filter><clipPath id="6d4fc8cc85"><rect x="0" width="55" y="0" height="119"/></clipPath><clipPath id="5f66d8d26e"><path d="M 174.570312 203.054688 L 183.304688 203.054688 L 183.304688 211 L 174.570312 211 Z M 174.570312 203.054688 "/></clipPath></defs><g id="2b36ffbffb"><g clip-rule="nonzero" clip-path="url(#797a8d9a89)"><g clip-rule="nonzero" clip-path="url(#b90e819de3)"><path style=" stroke:none;fill-rule:nonzero;fill:#00bfcf;fill-opacity:1;" d="M 122.6875 133.859375 L 235.1875 133.859375 L 235.1875 246.359375 L 122.6875 246.359375 Z M 122.6875 133.859375 "/></g></g><g clip-rule="nonzero" clip-path="url(#232a1c0f5b)"><path style=" stroke:none;fill-rule:nonzero;fill:#f5f6f7;fill-opacity:1;" d="M 174.570312 216.808594 L 183.292969 216.808594 L 183.292969 224.75 L 174.570312 224.75 Z M 174.570312 216.808594 "/></g><g style="fill:#f5f6f7;fill-opacity:1;"><g transform="translate(130.602036, 264.808581)"><path style="stroke:none" d="M 0.671875 0 L 0.671875 -8.203125 C 0.671875 -8.847656 0.828125 -9.4375 1.140625 -9.96875 C 1.460938 -10.5 1.890625 -10.921875 2.421875 -11.234375 C 2.953125 -11.554688 3.539062 -11.71875 4.1875 -11.71875 L 15.734375 -11.71875 L 15.734375 -9.375 L 4.1875 -9.375 C 3.863281 -9.375 3.585938 -9.257812 3.359375 -9.03125 C 3.128906 -8.800781 3.015625 -8.523438 3.015625 -8.203125 L 3.015625 0 Z M 4.1875 -4.1875 L 4.1875 -6.53125 L 14.5625 -6.53125 L 14.5625 -4.1875 Z M 4.1875 -4.1875 "/></g></g><g style="fill:#f5f6f7;fill-opacity:1;"><g transform="translate(146.999213, 264.808581)"><path style="stroke:none" d="M 13.390625 -2.34375 L 13.390625 -8.203125 C 13.390625 -8.523438 13.273438 -8.800781 13.046875 -9.03125 C 12.816406 -9.257812 12.539062 -9.375 12.21875 -9.375 L 3.015625 -9.375 L 3.015625 -11.71875 L 12.21875 -11.71875 C 12.863281 -11.71875 13.453125 -11.554688 13.984375 -11.234375 C 14.515625 -10.921875 14.9375 -10.5 15.25 -9.96875 C 15.570312 -9.4375 15.734375 -8.847656 15.734375 -8.203125 L 15.734375 -2.34375 Z M 4.1875 0 C 3.539062 0 2.953125 -0.15625 2.421875 -0.46875 C 1.890625 -0.789062 1.460938 -1.21875 1.140625 -1.75 C 0.828125 -2.28125 0.671875 -2.867188 0.671875 -3.515625 L 0.671875 -9.375 L 3.015625 -9.375 L 3.015625 -3.515625 C 3.015625 -3.191406 3.128906 -2.914062 3.359375 -2.6875 C 3.585938 -2.457031 3.863281 -2.34375 4.1875 -2.34375 L 13.390625 -2.34375 L 13.390625 0 Z M 4.1875 0 "/></g></g><g style="fill:#f5f6f7;fill-opacity:1;"><g transform="translate(163.39639, 264.808581)"><path style="stroke:none" d="M 4.1875 0 C 3.539062 0 2.953125 -0.15625 2.421875 -0.46875 C 1.890625 -0.789062 1.460938 -1.21875 1.140625 -1.75 C 0.828125 -2.28125 0.671875 -2.867188 0.671875 -3.515625 L 0.671875 -11.71875 L 3.015625 -11.71875 L 3.015625 -3.515625 C 3.015625 -3.191406 3.128906 -2.914062 3.359375 -2.6875 C 3.585938 -2.457031 3.863281 -2.34375 4.1875 -2.34375 L 13.390625 -2.34375 L 13.390625 0 Z M 13.390625 -2.34375 L 13.390625 -11.71875 L 15.734375 -11.71875 L 15.734375 -2.34375 Z M 13.390625 -2.34375 "/></g></g><g style="fill:#f5f6f7;fill-opacity:1;"><g transform="translate(179.793566, 264.808581)"><path style="stroke:none" d="M 13.390625 0 C 12.742188 0 12.140625 -0.140625 11.578125 -0.421875 C 11.023438 -0.710938 10.5 -1.097656 10 -1.578125 C 9.507812 -2.066406 9.035156 -2.625 8.578125 -3.25 C 8.128906 -3.882812 7.679688 -4.539062 7.234375 -5.21875 C 6.898438 -5.726562 6.554688 -6.226562 6.203125 -6.71875 C 5.859375 -7.21875 5.507812 -7.664062 5.15625 -8.0625 C 4.8125 -8.457031 4.457031 -8.773438 4.09375 -9.015625 C 3.738281 -9.253906 3.378906 -9.375 3.015625 -9.375 L 3.015625 -11.71875 C 3.671875 -11.71875 4.273438 -11.578125 4.828125 -11.296875 C 5.390625 -11.015625 5.910156 -10.628906 6.390625 -10.140625 C 6.878906 -9.648438 7.351562 -9.09375 7.8125 -8.46875 C 8.269531 -7.851562 8.722656 -7.203125 9.171875 -6.515625 C 9.503906 -5.992188 9.84375 -5.484375 10.1875 -4.984375 C 10.53125 -4.492188 10.878906 -4.050781 11.234375 -3.65625 C 11.585938 -3.257812 11.941406 -2.941406 12.296875 -2.703125 C 12.648438 -2.460938 13.015625 -2.34375 13.390625 -2.34375 Z M 13.40625 -2.34375 L 13.40625 -11.71875 L 15.734375 -11.71875 L 15.734375 -2.34375 Z M 0.671875 0 L 0.671875 -9.375 L 3.015625 -9.375 L 3.015625 0 Z M 0.671875 0 "/></g></g><g style="fill:#f5f6f7;fill-opacity:1;"><g transform="translate(196.190743, 264.808581)"><path style="stroke:none" d="M 13.390625 -2.34375 L 13.390625 -8.203125 C 13.390625 -8.523438 13.273438 -8.800781 13.046875 -9.03125 C 12.816406 -9.257812 12.539062 -9.375 12.21875 -9.375 L 3.015625 -9.375 L 3.015625 -11.71875 L 12.21875 -11.71875 C 12.863281 -11.71875 13.453125 -11.554688 13.984375 -11.234375 C 14.515625 -10.921875 14.9375 -10.5 15.25 -9.96875 C 15.570312 -9.4375 15.734375 -8.847656 15.734375 -8.203125 L 15.734375 -2.34375 Z M 0.671875 0 L 0.671875 -9.375 L 3.015625 -9.375 L 3.015625 -2.34375 L 13.390625 -2.34375 L 13.390625 0 Z M 0.671875 0 "/></g></g><g style="fill:#f5f6f7;fill-opacity:1;"><g transform="translate(212.58792, 264.808581)"><path style="stroke:none" d="M 4.1875 0 C 3.539062 0 2.953125 -0.15625 2.421875 -0.46875 C 1.890625 -0.789062 1.460938 -1.21875 1.140625 -1.75 C 0.828125 -2.28125 0.671875 -2.867188 0.671875 -3.515625 L 0.671875 -11.71875 L 3.015625 -11.71875 L 3.015625 -3.515625 C 3.015625 -3.191406 3.128906 -2.914062 3.359375 -2.6875 C 3.585938 -2.457031 3.863281 -2.34375 4.1875 -2.34375 L 14.71875 -2.34375 L 14.71875 0 Z M 4.1875 0 "/></g></g><g style="fill:#f5f6f7;fill-opacity:1;"><g transform="translate(227.981184, 264.808581)"><path style="stroke:none" d="M 4.1875 -3.515625 C 3.539062 -3.515625 2.953125 -3.671875 2.421875 -3.984375 C 1.890625 -4.304688 1.460938 -4.734375 1.140625 -5.265625 C 0.828125 -5.796875 0.671875 -6.382812 0.671875 -7.03125 L 0.671875 -11.71875 L 3.015625 -11.71875 L 3.015625 -7.03125 C 3.015625 -6.707031 3.128906 -6.429688 3.359375 -6.203125 C 3.585938 -5.972656 3.863281 -5.859375 4.1875 -5.859375 L 12.21875 -5.859375 L 12.21875 -3.515625 Z M 1.84375 0 L 1.84375 -2.34375 L 12.21875 -2.34375 C 12.539062 -2.34375 12.816406 -2.457031 13.046875 -2.6875 C 13.273438 -2.914062 13.390625 -3.191406 13.390625 -3.515625 L 13.390625 -11.71875 L 15.734375 -11.71875 L 15.734375 -3.515625 C 15.734375 -2.867188 15.570312 -2.28125 15.25 -1.75 C 14.9375 -1.21875 14.515625 -0.789062 13.984375 -0.46875 C 13.453125 -0.15625 12.863281 0 12.21875 0 Z M 1.84375 0 "/></g></g><g mask="url(#41fc42fa61)" transform="matrix(1,0,0,1,154,127)"><g clip-path="url(#6d4fc8cc85)"><g style="fill:#f5f6f7;fill-opacity:1;"><g transform="translate(0.096635, 98.296825)"><path style="stroke:none" d="M 49.203125 -60.75 L 23.671875 -60.75 C 21.367188 -60.75 19.691406 -60.238281 18.640625 -59.21875 C 17.585938 -58.195312 17.0625 -56.535156 17.0625 -54.234375 L 17.0625 -38.453125 L 45.453125 -38.453125 L 45.453125 -31.453125 L 17.0625 -31.453125 L 17.0625 0 L 8.375 0 L 8.375 -55.90625 C 8.375 -59.789062 9.554688 -62.800781 11.921875 -64.9375 C 14.296875 -67.070312 17.488281 -68.140625 21.5 -68.140625 C 34.445312 -68.140625 43.847656 -67.910156 49.703125 -67.453125 Z M 49.203125 -60.75 "/></g></g><g style="fill:#f5f6f7;fill-opacity:1;"><g transform="translate(53.248434, 98.296825)"><path style="stroke:none" d=""/></g></g></g><mask id="41fc42fa61"><g filter="url(#0b31d6db81)"><rect x="0" width="375" y="0" height="374.999991" style="fill:#000000;fill-opacity:0.89;stroke:none;"/></g></mask></g><g clip-rule="nonzero" clip-path="url(#5f66d8d26e)"><path style=" stroke:none;fill-rule:nonzero;fill:#f5f6f7;fill-opacity:1;" d="M 174.570312 203.054688 L 183.292969 203.054688 L 183.292969 211 L 174.570312 211 Z M 174.570312 203.054688 "/></g></g></svg>